<svg width="32" height="31" viewBox="0 0 32 31" fill="none" xmlns="http://www.w3.org/2000/svg">
<path d="M10.4 4.89474C9.76348 4.89474 9.15303 5.15258 8.70294 5.61155C8.25286 6.07052 8 6.69302 8 7.34211C8 7.99119 8.25286 8.61369 8.70294 9.07266C9.15303 9.53163 9.76348 9.78947 10.4 9.78947C11.0365 9.78947 11.647 9.53163 12.0971 9.07266C12.5471 8.61369 12.8 7.99119 12.8 7.34211C12.8 6.69302 12.5471 6.07052 12.0971 5.61155C11.647 5.15258 11.0365 4.89474 10.4 4.89474ZM12.8 0C14.9217 0 16.9566 0.85949 18.4569 2.38939C19.9571 3.91929 20.8 5.99429 20.8 8.15789C20.8 10.9316 19.44 13.3789 17.376 14.8474C19.904 15.0921 22.752 15.6795 25.6 17.1316C30.4 19.5789 32 16.3158 32 16.3158C32 16.3158 30.4 31 20.8 31H11.2C11.2 31 3.2 31 3.2 22.8421C3.2 17.9474 8 16.3158 6.4 13.0526C0 13.0526 0 7.34211 0 7.34211C1.6 8.15789 3.584 8.15789 4.8 7.58684C4.94932 5.52649 5.85669 3.59978 7.34026 2.19283C8.82383 0.785874 10.774 0.0026118 12.8 0Z" fill="#FFF500"/>
</svg>
